<svg width="174" height="83" viewBox="0 0 174 83" fill="none" xmlns="http://www.w3.org/2000/svg">
<g id="Graphics">
<g id="Group 210" opacity="0.5">
<g id="Group 208">
<g id="DotsNine">
<path id="Vector" d="M8.10182 60C8.99672 60 9.72219 59.3284 9.72219 58.5C9.72219 57.6716 8.99672 57 8.10182 57C7.20691 57 6.48145 57.6716 6.48145 58.5C6.48145 59.3284 7.20691 60 8.10182 60Z" fill="black"/>
<path id="Vector_2" d="M17.2844 60C18.1793 60 18.9048 59.3284 18.9048 58.5C18.9048 57.6716 18.1793 57 17.2844 57C16.3895 57 15.6641 57.6716 15.6641 58.5C15.6641 59.3284 16.3895 60 17.2844 60Z" fill="black"/>
<path id="Vector_3" d="M26.4661 60C27.361 60 28.0864 59.3284 28.0864 58.5C28.0864 57.6716 27.361 57 26.4661 57C25.5712 57 24.8457 57.6716 24.8457 58.5C24.8457 59.3284 25.5712 60 26.4661 60Z" fill="black"/>
<path id="Vector_4" d="M8.10182 68.5C8.99672 68.5 9.72219 67.8284 9.72219 67C9.72219 66.1716 8.99672 65.5 8.10182 65.5C7.20691 65.5 6.48145 66.1716 6.48145 67C6.48145 67.8284 7.20691 68.5 8.10182 68.5Z" fill="black"/>
<path id="Vector_5" d="M17.2844 68.5C18.1793 68.5 18.9048 67.8284 18.9048 67C18.9048 66.1716 18.1793 65.5 17.2844 65.5C16.3895 65.5 15.6641 66.1716 15.6641 67C15.6641 67.8284 16.3895 68.5 17.2844 68.5Z" fill="black"/>
<path id="Vector_6" d="M26.4661 68.5C27.361 68.5 28.0864 67.8284 28.0864 67C28.0864 66.1716 27.361 65.5 26.4661 65.5C25.5712 65.5 24.8457 66.1716 24.8457 67C24.8457 67.8284 25.5712 68.5 26.4661 68.5Z" fill="black"/>
<path id="Vector_7" d="M8.10182 77C8.99672 77 9.72219 76.3284 9.72219 75.5C9.72219 74.6716 8.99672 74 8.10182 74C7.20691 74 6.48145 74.6716 6.48145 75.5C6.48145 76.3284 7.20691 77 8.10182 77Z" fill="black"/>
<path id="Vector_8" d="M17.2844 77C18.1793 77 18.9048 76.3284 18.9048 75.5C18.9048 74.6716 18.1793 74 17.2844 74C16.3895 74 15.6641 74.6716 15.6641 75.5C15.6641 76.3284 16.3895 77 17.2844 77Z" fill="black"/>
<path id="Vector_9" d="M26.4661 77C27.361 77 28.0864 76.3284 28.0864 75.5C28.0864 74.6716 27.361 74 26.4661 74C25.5712 74 24.8457 74.6716 24.8457 75.5C24.8457 76.3284 25.5712 77 26.4661 77Z" fill="black"/>
</g>
<g id="DotsNine_2">
<path id="Vector_10" d="M36.1887 60C37.0836 60 37.8091 59.3284 37.8091 58.5C37.8091 57.6716 37.0836 57 36.1887 57C35.2938 57 34.5684 57.6716 34.5684 58.5C34.5684 59.3284 35.2938 60 36.1887 60Z" fill="black"/>
<path id="Vector_11" d="M45.3713 60C46.2663 60 46.9917 59.3284 46.9917 58.5C46.9917 57.6716 46.2663 57 45.3713 57C44.4764 57 43.751 57.6716 43.751 58.5C43.751 59.3284 44.4764 60 45.3713 60Z" fill="black"/>
<path id="Vector_12" d="M54.553 60C55.4479 60 56.1734 59.3284 56.1734 58.5C56.1734 57.6716 55.4479 57 54.553 57C53.6581 57 52.9326 57.6716 52.9326 58.5C52.9326 59.3284 53.6581 60 54.553 60Z" fill="black"/>
<path id="Vector_13" d="M36.1887 68.5C37.0836 68.5 37.8091 67.8284 37.8091 67C37.8091 66.1716 37.0836 65.5 36.1887 65.5C35.2938 65.5 34.5684 66.1716 34.5684 67C34.5684 67.8284 35.2938 68.5 36.1887 68.5Z" fill="black"/>
<path id="Vector_14" d="M45.3713 68.5C46.2663 68.5 46.9917 67.8284 46.9917 67C46.9917 66.1716 46.2663 65.5 45.3713 65.5C44.4764 65.5 43.751 66.1716 43.751 67C43.751 67.8284 44.4764 68.5 45.3713 68.5Z" fill="black"/>
<path id="Vector_15" d="M54.553 68.5C55.4479 68.5 56.1734 67.8284 56.1734 67C56.1734 66.1716 55.4479 65.5 54.553 65.5C53.6581 65.5 52.9326 66.1716 52.9326 67C52.9326 67.8284 53.6581 68.5 54.553 68.5Z" fill="black"/>
<path id="Vector_16" d="M36.1887 77C37.0836 77 37.8091 76.3284 37.8091 75.5C37.8091 74.6716 37.0836 74 36.1887 74C35.2938 74 34.5684 74.6716 34.5684 75.5C34.5684 76.3284 35.2938 77 36.1887 77Z" fill="black"/>
<path id="Vector_17" d="M45.3713 77C46.2663 77 46.9917 76.3284 46.9917 75.5C46.9917 74.6716 46.2663 74 45.3713 74C44.4764 74 43.751 74.6716 43.751 75.5C43.751 76.3284 44.4764 77 45.3713 77Z" fill="black"/>
<path id="Vector_18" d="M54.553 77C55.4479 77 56.1734 76.3284 56.1734 75.5C56.1734 74.6716 55.4479 74 54.553 74C53.6581 74 52.9326 74.6716 52.9326 75.5C52.9326 76.3284 53.6581 77 54.553 77Z" fill="black"/>
</g>
<g id="DotsNine_3">
<path id="Vector_19" d="M64.2747 60C65.1696 60 65.895 59.3284 65.895 58.5C65.895 57.6716 65.1696 57 64.2747 57C63.3798 57 62.6543 57.6716 62.6543 58.5C62.6543 59.3284 63.3798 60 64.2747 60Z" fill="black"/>
<path id="Vector_20" d="M73.4563 60C74.3512 60 75.0767 59.3284 75.0767 58.5C75.0767 57.6716 74.3512 57 73.4563 57C72.5614 57 71.8359 57.6716 71.8359 58.5C71.8359 59.3284 72.5614 60 73.4563 60Z" fill="black"/>
<path id="Vector_21" d="M82.6389 60C83.5338 60 84.2593 59.3284 84.2593 58.5C84.2593 57.6716 83.5338 57 82.6389 57C81.744 57 81.0186 57.6716 81.0186 58.5C81.0186 59.3284 81.744 60 82.6389 60Z" fill="black"/>
<path id="Vector_22" d="M64.2747 68.5C65.1696 68.5 65.895 67.8284 65.895 67C65.895 66.1716 65.1696 65.5 64.2747 65.5C63.3798 65.5 62.6543 66.1716 62.6543 67C62.6543 67.8284 63.3798 68.5 64.2747 68.5Z" fill="black"/>
<path id="Vector_23" d="M73.4563 68.5C74.3512 68.5 75.0767 67.8284 75.0767 67C75.0767 66.1716 74.3512 65.5 73.4563 65.5C72.5614 65.5 71.8359 66.1716 71.8359 67C71.8359 67.8284 72.5614 68.5 73.4563 68.5Z" fill="black"/>
<path id="Vector_24" d="M82.6389 68.5C83.5338 68.5 84.2593 67.8284 84.2593 67C84.2593 66.1716 83.5338 65.5 82.6389 65.5C81.744 65.5 81.0186 66.1716 81.0186 67C81.0186 67.8284 81.744 68.5 82.6389 68.5Z" fill="black"/>
<path id="Vector_25" d="M64.2747 77C65.1696 77 65.895 76.3284 65.895 75.5C65.895 74.6716 65.1696 74 64.2747 74C63.3798 74 62.6543 74.6716 62.6543 75.5C62.6543 76.3284 63.3798 77 64.2747 77Z" fill="black"/>
<path id="Vector_26" d="M73.4563 77C74.3512 77 75.0767 76.3284 75.0767 75.5C75.0767 74.6716 74.3512 74 73.4563 74C72.5614 74 71.8359 74.6716 71.8359 75.5C71.8359 76.3284 72.5614 77 73.4563 77Z" fill="black"/>
<path id="Vector_27" d="M82.6389 77C83.5338 77 84.2593 76.3284 84.2593 75.5C84.2593 74.6716 83.5338 74 82.6389 74C81.744 74 81.0186 74.6716 81.0186 75.5C81.0186 76.3284 81.744 77 82.6389 77Z" fill="black"/>
</g>
<g id="DotsNine_4">
<path id="Vector_28" d="M92.3616 60C93.2565 60 93.982 59.3284 93.982 58.5C93.982 57.6716 93.2565 57 92.3616 57C91.4667 57 90.7412 57.6716 90.7412 58.5C90.7412 59.3284 91.4667 60 92.3616 60Z" fill="black"/>
<path id="Vector_29" d="M101.544 60C102.439 60 103.165 59.3284 103.165 58.5C103.165 57.6716 102.439 57 101.544 57C100.649 57 99.9238 57.6716 99.9238 58.5C99.9238 59.3284 100.649 60 101.544 60Z" fill="black"/>
<path id="Vector_30" d="M110.726 60C111.621 60 112.346 59.3284 112.346 58.5C112.346 57.6716 111.621 57 110.726 57C109.831 57 109.105 57.6716 109.105 58.5C109.105 59.3284 109.831 60 110.726 60Z" fill="black"/>
<path id="Vector_31" d="M92.3616 68.5C93.2565 68.5 93.982 67.8284 93.982 67C93.982 66.1716 93.2565 65.5 92.3616 65.5C91.4667 65.5 90.7412 66.1716 90.7412 67C90.7412 67.8284 91.4667 68.5 92.3616 68.5Z" fill="black"/>
<path id="Vector_32" d="M101.544 68.5C102.439 68.5 103.165 67.8284 103.165 67C103.165 66.1716 102.439 65.5 101.544 65.5C100.649 65.5 99.9238 66.1716 99.9238 67C99.9238 67.8284 100.649 68.5 101.544 68.5Z" fill="black"/>
<path id="Vector_33" d="M110.726 68.5C111.621 68.5 112.346 67.8284 112.346 67C112.346 66.1716 111.621 65.5 110.726 65.5C109.831 65.5 109.105 66.1716 109.105 67C109.105 67.8284 109.831 68.5 110.726 68.5Z" fill="black"/>
<path id="Vector_34" d="M92.3616 77C93.2565 77 93.982 76.3284 93.982 75.5C93.982 74.6716 93.2565 74 92.3616 74C91.4667 74 90.7412 74.6716 90.7412 75.5C90.7412 76.3284 91.4667 77 92.3616 77Z" fill="black"/>
<path id="Vector_35" d="M101.544 77C102.439 77 103.165 76.3284 103.165 75.5C103.165 74.6716 102.439 74 101.544 74C100.649 74 99.9238 74.6716 99.9238 75.5C99.9238 76.3284 100.649 77 101.544 77Z" fill="black"/>
<path id="Vector_36" d="M110.726 77C111.621 77 112.346 76.3284 112.346 75.5C112.346 74.6716 111.621 74 110.726 74C109.831 74 109.105 74.6716 109.105 75.5C109.105 76.3284 109.831 77 110.726 77Z" fill="black"/>
</g>
<g id="DotsNine_5">
<path id="Vector_37" d="M120.448 60C121.342 60 122.068 59.3284 122.068 58.5C122.068 57.6716 121.342 57 120.448 57C119.553 57 118.827 57.6716 118.827 58.5C118.827 59.3284 119.553 60 120.448 60Z" fill="black"/>
<path id="Vector_38" d="M129.629 60C130.524 60 131.25 59.3284 131.25 58.5C131.25 57.6716 130.524 57 129.629 57C128.734 57 128.009 57.6716 128.009 58.5C128.009 59.3284 128.734 60 129.629 60Z" fill="black"/>
<path id="Vector_39" d="M138.812 60C139.707 60 140.432 59.3284 140.432 58.5C140.432 57.6716 139.707 57 138.812 57C137.917 57 137.191 57.6716 137.191 58.5C137.191 59.3284 137.917 60 138.812 60Z" fill="black"/>
<path id="Vector_40" d="M120.448 68.5C121.342 68.5 122.068 67.8284 122.068 67C122.068 66.1716 121.342 65.5 120.448 65.5C119.553 65.5 118.827 66.1716 118.827 67C118.827 67.8284 119.553 68.5 120.448 68.5Z" fill="black"/>
<path id="Vector_41" d="M129.629 68.5C130.524 68.5 131.25 67.8284 131.25 67C131.25 66.1716 130.524 65.5 129.629 65.5C128.734 65.5 128.009 66.1716 128.009 67C128.009 67.8284 128.734 68.5 129.629 68.5Z" fill="black"/>
<path id="Vector_42" d="M138.812 68.5C139.707 68.5 140.432 67.8284 140.432 67C140.432 66.1716 139.707 65.5 138.812 65.5C137.917 65.5 137.191 66.1716 137.191 67C137.191 67.8284 137.917 68.5 138.812 68.5Z" fill="black"/>
<path id="Vector_43" d="M120.448 77C121.342 77 122.068 76.3284 122.068 75.5C122.068 74.6716 121.342 74 120.448 74C119.553 74 118.827 74.6716 118.827 75.5C118.827 76.3284 119.553 77 120.448 77Z" fill="black"/>
<path id="Vector_44" d="M129.629 77C130.524 77 131.25 76.3284 131.25 75.5C131.25 74.6716 130.524 74 129.629 74C128.734 74 128.009 74.6716 128.009 75.5C128.009 76.3284 128.734 77 129.629 77Z" fill="black"/>
<path id="Vector_45" d="M138.812 77C139.707 77 140.432 76.3284 140.432 75.5C140.432 74.6716 139.707 74 138.812 74C137.917 74 137.191 74.6716 137.191 75.5C137.191 76.3284 137.917 77 138.812 77Z" fill="black"/>
</g>
<g id="DotsNine_6">
<path id="Vector_46" d="M148.534 60C149.429 60 150.155 59.3284 150.155 58.5C150.155 57.6716 149.429 57 148.534 57C147.64 57 146.914 57.6716 146.914 58.5C146.914 59.3284 147.64 60 148.534 60Z" fill="black"/>
<path id="Vector_47" d="M157.717 60C158.612 60 159.337 59.3284 159.337 58.5C159.337 57.6716 158.612 57 157.717 57C156.822 57 156.097 57.6716 156.097 58.5C156.097 59.3284 156.822 60 157.717 60Z" fill="black"/>
<path id="Vector_48" d="M166.899 60C167.794 60 168.519 59.3284 168.519 58.5C168.519 57.6716 167.794 57 166.899 57C166.004 57 165.278 57.6716 165.278 58.5C165.278 59.3284 166.004 60 166.899 60Z" fill="black"/>
<path id="Vector_49" d="M148.534 68.5C149.429 68.5 150.155 67.8284 150.155 67C150.155 66.1716 149.429 65.5 148.534 65.5C147.64 65.5 146.914 66.1716 146.914 67C146.914 67.8284 147.64 68.5 148.534 68.5Z" fill="black"/>
<path id="Vector_50" d="M157.717 68.5C158.612 68.5 159.337 67.8284 159.337 67C159.337 66.1716 158.612 65.5 157.717 65.5C156.822 65.5 156.097 66.1716 156.097 67C156.097 67.8284 156.822 68.5 157.717 68.5Z" fill="black"/>
<path id="Vector_51" d="M166.899 68.5C167.794 68.5 168.519 67.8284 168.519 67C168.519 66.1716 167.794 65.5 166.899 65.5C166.004 65.5 165.278 66.1716 165.278 67C165.278 67.8284 166.004 68.5 166.899 68.5Z" fill="black"/>
<path id="Vector_52" d="M148.534 77C149.429 77 150.155 76.3284 150.155 75.5C150.155 74.6716 149.429 74 148.534 74C147.64 74 146.914 74.6716 146.914 75.5C146.914 76.3284 147.64 77 148.534 77Z" fill="black"/>
<path id="Vector_53" d="M157.717 77C158.612 77 159.337 76.3284 159.337 75.5C159.337 74.6716 158.612 74 157.717 74C156.822 74 156.097 74.6716 156.097 75.5C156.097 76.3284 156.822 77 157.717 77Z" fill="black"/>
<path id="Vector_54" d="M166.899 77C167.794 77 168.519 76.3284 168.519 75.5C168.519 74.6716 167.794 74 166.899 74C166.004 74 165.278 74.6716 165.278 75.5C165.278 76.3284 166.004 77 166.899 77Z" fill="black"/>
</g>
</g>
<g id="Group 209">
<g id="DotsNine_7">
<path id="Vector_55" d="M8.10182 35C8.99672 35 9.72219 34.3284 9.72219 33.5C9.72219 32.6716 8.99672 32 8.10182 32C7.20691 32 6.48145 32.6716 6.48145 33.5C6.48145 34.3284 7.20691 35 8.10182 35Z" fill="black"/>
<path id="Vector_56" d="M17.2844 35C18.1793 35 18.9048 34.3284 18.9048 33.5C18.9048 32.6716 18.1793 32 17.2844 32C16.3895 32 15.6641 32.6716 15.6641 33.5C15.6641 34.3284 16.3895 35 17.2844 35Z" fill="black"/>
<path id="Vector_57" d="M26.4661 35C27.361 35 28.0864 34.3284 28.0864 33.5C28.0864 32.6716 27.361 32 26.4661 32C25.5712 32 24.8457 32.6716 24.8457 33.5C24.8457 34.3284 25.5712 35 26.4661 35Z" fill="black"/>
<path id="Vector_58" d="M8.10182 43.5C8.99672 43.5 9.72219 42.8284 9.72219 42C9.72219 41.1716 8.99672 40.5 8.10182 40.5C7.20691 40.5 6.48145 41.1716 6.48145 42C6.48145 42.8284 7.20691 43.5 8.10182 43.5Z" fill="black"/>
<path id="Vector_59" d="M17.2844 43.5C18.1793 43.5 18.9048 42.8284 18.9048 42C18.9048 41.1716 18.1793 40.5 17.2844 40.5C16.3895 40.5 15.6641 41.1716 15.6641 42C15.6641 42.8284 16.3895 43.5 17.2844 43.5Z" fill="black"/>
<path id="Vector_60" d="M26.4661 43.5C27.361 43.5 28.0864 42.8284 28.0864 42C28.0864 41.1716 27.361 40.5 26.4661 40.5C25.5712 40.5 24.8457 41.1716 24.8457 42C24.8457 42.8284 25.5712 43.5 26.4661 43.5Z" fill="black"/>
<path id="Vector_61" d="M8.10182 52C8.99672 52 9.72219 51.3284 9.72219 50.5C9.72219 49.6716 8.99672 49 8.10182 49C7.20691 49 6.48145 49.6716 6.48145 50.5C6.48145 51.3284 7.20691 52 8.10182 52Z" fill="black"/>
<path id="Vector_62" d="M17.2844 52C18.1793 52 18.9048 51.3284 18.9048 50.5C18.9048 49.6716 18.1793 49 17.2844 49C16.3895 49 15.6641 49.6716 15.6641 50.5C15.6641 51.3284 16.3895 52 17.2844 52Z" fill="black"/>
<path id="Vector_63" d="M26.4661 52C27.361 52 28.0864 51.3284 28.0864 50.5C28.0864 49.6716 27.361 49 26.4661 49C25.5712 49 24.8457 49.6716 24.8457 50.5C24.8457 51.3284 25.5712 52 26.4661 52Z" fill="black"/>
</g>
<g id="DotsNine_8">
<path id="Vector_64" d="M36.1887 35C37.0836 35 37.8091 34.3284 37.8091 33.5C37.8091 32.6716 37.0836 32 36.1887 32C35.2938 32 34.5684 32.6716 34.5684 33.5C34.5684 34.3284 35.2938 35 36.1887 35Z" fill="black"/>
<path id="Vector_65" d="M45.3713 35C46.2663 35 46.9917 34.3284 46.9917 33.5C46.9917 32.6716 46.2663 32 45.3713 32C44.4764 32 43.751 32.6716 43.751 33.5C43.751 34.3284 44.4764 35 45.3713 35Z" fill="black"/>
<path id="Vector_66" d="M54.553 35C55.4479 35 56.1734 34.3284 56.1734 33.5C56.1734 32.6716 55.4479 32 54.553 32C53.6581 32 52.9326 32.6716 52.9326 33.5C52.9326 34.3284 53.6581 35 54.553 35Z" fill="black"/>
<path id="Vector_67" d="M36.1887 43.5C37.0836 43.5 37.8091 42.8284 37.8091 42C37.8091 41.1716 37.0836 40.5 36.1887 40.5C35.2938 40.5 34.5684 41.1716 34.5684 42C34.5684 42.8284 35.2938 43.5 36.1887 43.5Z" fill="black"/>
<path id="Vector_68" d="M45.3713 43.5C46.2663 43.5 46.9917 42.8284 46.9917 42C46.9917 41.1716 46.2663 40.5 45.3713 40.5C44.4764 40.5 43.751 41.1716 43.751 42C43.751 42.8284 44.4764 43.5 45.3713 43.5Z" fill="black"/>
<path id="Vector_69" d="M54.553 43.5C55.4479 43.5 56.1734 42.8284 56.1734 42C56.1734 41.1716 55.4479 40.5 54.553 40.5C53.6581 40.5 52.9326 41.1716 52.9326 42C52.9326 42.8284 53.6581 43.5 54.553 43.5Z" fill="black"/>
<path id="Vector_70" d="M36.1887 52C37.0836 52 37.8091 51.3284 37.8091 50.5C37.8091 49.6716 37.0836 49 36.1887 49C35.2938 49 34.5684 49.6716 34.5684 50.5C34.5684 51.3284 35.2938 52 36.1887 52Z" fill="black"/>
<path id="Vector_71" d="M45.3713 52C46.2663 52 46.9917 51.3284 46.9917 50.5C46.9917 49.6716 46.2663 49 45.3713 49C44.4764 49 43.751 49.6716 43.751 50.5C43.751 51.3284 44.4764 52 45.3713 52Z" fill="black"/>
<path id="Vector_72" d="M54.553 52C55.4479 52 56.1734 51.3284 56.1734 50.5C56.1734 49.6716 55.4479 49 54.553 49C53.6581 49 52.9326 49.6716 52.9326 50.5C52.9326 51.3284 53.6581 52 54.553 52Z" fill="black"/>
</g>
<g id="DotsNine_9">
<path id="Vector_73" d="M64.2747 35C65.1696 35 65.895 34.3284 65.895 33.5C65.895 32.6716 65.1696 32 64.2747 32C63.3798 32 62.6543 32.6716 62.6543 33.5C62.6543 34.3284 63.3798 35 64.2747 35Z" fill="black"/>
<path id="Vector_74" d="M73.4563 35C74.3512 35 75.0767 34.3284 75.0767 33.5C75.0767 32.6716 74.3512 32 73.4563 32C72.5614 32 71.8359 32.6716 71.8359 33.5C71.8359 34.3284 72.5614 35 73.4563 35Z" fill="black"/>
<path id="Vector_75" d="M82.6389 35C83.5338 35 84.2593 34.3284 84.2593 33.5C84.2593 32.6716 83.5338 32 82.6389 32C81.744 32 81.0186 32.6716 81.0186 33.5C81.0186 34.3284 81.744 35 82.6389 35Z" fill="black"/>
<path id="Vector_76" d="M64.2747 43.5C65.1696 43.5 65.895 42.8284 65.895 42C65.895 41.1716 65.1696 40.5 64.2747 40.5C63.3798 40.5 62.6543 41.1716 62.6543 42C62.6543 42.8284 63.3798 43.5 64.2747 43.5Z" fill="black"/>
<path id="Vector_77" d="M73.4563 43.5C74.3512 43.5 75.0767 42.8284 75.0767 42C75.0767 41.1716 74.3512 40.5 73.4563 40.5C72.5614 40.5 71.8359 41.1716 71.8359 42C71.8359 42.8284 72.5614 43.5 73.4563 43.5Z" fill="black"/>
<path id="Vector_78" d="M82.6389 43.5C83.5338 43.5 84.2593 42.8284 84.2593 42C84.2593 41.1716 83.5338 40.5 82.6389 40.5C81.744 40.5 81.0186 41.1716 81.0186 42C81.0186 42.8284 81.744 43.5 82.6389 43.5Z" fill="black"/>
<path id="Vector_79" d="M64.2747 52C65.1696 52 65.895 51.3284 65.895 50.5C65.895 49.6716 65.1696 49 64.2747 49C63.3798 49 62.6543 49.6716 62.6543 50.5C62.6543 51.3284 63.3798 52 64.2747 52Z" fill="black"/>
<path id="Vector_80" d="M73.4563 52C74.3512 52 75.0767 51.3284 75.0767 50.5C75.0767 49.6716 74.3512 49 73.4563 49C72.5614 49 71.8359 49.6716 71.8359 50.5C71.8359 51.3284 72.5614 52 73.4563 52Z" fill="black"/>
<path id="Vector_81" d="M82.6389 52C83.5338 52 84.2593 51.3284 84.2593 50.5C84.2593 49.6716 83.5338 49 82.6389 49C81.744 49 81.0186 49.6716 81.0186 50.5C81.0186 51.3284 81.744 52 82.6389 52Z" fill="black"/>
</g>
<g id="DotsNine_10">
<path id="Vector_82" d="M92.3616 35C93.2565 35 93.982 34.3284 93.982 33.5C93.982 32.6716 93.2565 32 92.3616 32C91.4667 32 90.7412 32.6716 90.7412 33.5C90.7412 34.3284 91.4667 35 92.3616 35Z" fill="black"/>
<path id="Vector_83" d="M101.544 35C102.439 35 103.165 34.3284 103.165 33.5C103.165 32.6716 102.439 32 101.544 32C100.649 32 99.9238 32.6716 99.9238 33.5C99.9238 34.3284 100.649 35 101.544 35Z" fill="black"/>
<path id="Vector_84" d="M110.726 35C111.621 35 112.346 34.3284 112.346 33.5C112.346 32.6716 111.621 32 110.726 32C109.831 32 109.105 32.6716 109.105 33.5C109.105 34.3284 109.831 35 110.726 35Z" fill="black"/>
<path id="Vector_85" d="M92.3616 43.5C93.2565 43.5 93.982 42.8284 93.982 42C93.982 41.1716 93.2565 40.5 92.3616 40.5C91.4667 40.5 90.7412 41.1716 90.7412 42C90.7412 42.8284 91.4667 43.5 92.3616 43.5Z" fill="black"/>
<path id="Vector_86" d="M101.544 43.5C102.439 43.5 103.165 42.8284 103.165 42C103.165 41.1716 102.439 40.5 101.544 40.5C100.649 40.5 99.9238 41.1716 99.9238 42C99.9238 42.8284 100.649 43.5 101.544 43.5Z" fill="black"/>
<path id="Vector_87" d="M110.726 43.5C111.621 43.5 112.346 42.8284 112.346 42C112.346 41.1716 111.621 40.5 110.726 40.5C109.831 40.5 109.105 41.1716 109.105 42C109.105 42.8284 109.831 43.5 110.726 43.5Z" fill="black"/>
<path id="Vector_88" d="M92.3616 52C93.2565 52 93.982 51.3284 93.982 50.5C93.982 49.6716 93.2565 49 92.3616 49C91.4667 49 90.7412 49.6716 90.7412 50.5C90.7412 51.3284 91.4667 52 92.3616 52Z" fill="black"/>
<path id="Vector_89" d="M101.544 52C102.439 52 103.165 51.3284 103.165 50.5C103.165 49.6716 102.439 49 101.544 49C100.649 49 99.9238 49.6716 99.9238 50.5C99.9238 51.3284 100.649 52 101.544 52Z" fill="black"/>
<path id="Vector_90" d="M110.726 52C111.621 52 112.346 51.3284 112.346 50.5C112.346 49.6716 111.621 49 110.726 49C109.831 49 109.105 49.6716 109.105 50.5C109.105 51.3284 109.831 52 110.726 52Z" fill="black"/>
</g>
<g id="DotsNine_11">
<path id="Vector_91" d="M120.448 35C121.342 35 122.068 34.3284 122.068 33.5C122.068 32.6716 121.342 32 120.448 32C119.553 32 118.827 32.6716 118.827 33.5C118.827 34.3284 119.553 35 120.448 35Z" fill="black"/>
<path id="Vector_92" d="M129.629 35C130.524 35 131.25 34.3284 131.25 33.5C131.25 32.6716 130.524 32 129.629 32C128.734 32 128.009 32.6716 128.009 33.5C128.009 34.3284 128.734 35 129.629 35Z" fill="black"/>
<path id="Vector_93" d="M138.812 35C139.707 35 140.432 34.3284 140.432 33.5C140.432 32.6716 139.707 32 138.812 32C137.917 32 137.191 32.6716 137.191 33.5C137.191 34.3284 137.917 35 138.812 35Z" fill="black"/>
<path id="Vector_94" d="M120.448 43.5C121.342 43.5 122.068 42.8284 122.068 42C122.068 41.1716 121.342 40.5 120.448 40.5C119.553 40.5 118.827 41.1716 118.827 42C118.827 42.8284 119.553 43.5 120.448 43.5Z" fill="black"/>
<path id="Vector_95" d="M129.629 43.5C130.524 43.5 131.25 42.8284 131.25 42C131.25 41.1716 130.524 40.5 129.629 40.5C128.734 40.5 128.009 41.1716 128.009 42C128.009 42.8284 128.734 43.5 129.629 43.5Z" fill="black"/>
<path id="Vector_96" d="M138.812 43.5C139.707 43.5 140.432 42.8284 140.432 42C140.432 41.1716 139.707 40.5 138.812 40.5C137.917 40.5 137.191 41.1716 137.191 42C137.191 42.8284 137.917 43.5 138.812 43.5Z" fill="black"/>
<path id="Vector_97" d="M120.448 52C121.342 52 122.068 51.3284 122.068 50.5C122.068 49.6716 121.342 49 120.448 49C119.553 49 118.827 49.6716 118.827 50.5C118.827 51.3284 119.553 52 120.448 52Z" fill="black"/>
<path id="Vector_98" d="M129.629 52C130.524 52 131.25 51.3284 131.25 50.5C131.25 49.6716 130.524 49 129.629 49C128.734 49 128.009 49.6716 128.009 50.5C128.009 51.3284 128.734 52 129.629 52Z" fill="black"/>
<path id="Vector_99" d="M138.812 52C139.707 52 140.432 51.3284 140.432 50.5C140.432 49.6716 139.707 49 138.812 49C137.917 49 137.191 49.6716 137.191 50.5C137.191 51.3284 137.917 52 138.812 52Z" fill="black"/>
</g>
<g id="DotsNine_12">
<path id="Vector_100" d="M148.534 35C149.429 35 150.155 34.3284 150.155 33.5C150.155 32.6716 149.429 32 148.534 32C147.64 32 146.914 32.6716 146.914 33.5C146.914 34.3284 147.64 35 148.534 35Z" fill="black"/>
<path id="Vector_101" d="M157.717 35C158.612 35 159.337 34.3284 159.337 33.5C159.337 32.6716 158.612 32 157.717 32C156.822 32 156.097 32.6716 156.097 33.5C156.097 34.3284 156.822 35 157.717 35Z" fill="black"/>
<path id="Vector_102" d="M166.899 35C167.794 35 168.519 34.3284 168.519 33.5C168.519 32.6716 167.794 32 166.899 32C166.004 32 165.278 32.6716 165.278 33.5C165.278 34.3284 166.004 35 166.899 35Z" fill="black"/>
<path id="Vector_103" d="M148.534 43.5C149.429 43.5 150.155 42.8284 150.155 42C150.155 41.1716 149.429 40.5 148.534 40.5C147.64 40.5 146.914 41.1716 146.914 42C146.914 42.8284 147.64 43.5 148.534 43.5Z" fill="black"/>
<path id="Vector_104" d="M157.717 43.5C158.612 43.5 159.337 42.8284 159.337 42C159.337 41.1716 158.612 40.5 157.717 40.5C156.822 40.5 156.097 41.1716 156.097 42C156.097 42.8284 156.822 43.5 157.717 43.5Z" fill="black"/>
<path id="Vector_105" d="M166.899 43.5C167.794 43.5 168.519 42.8284 168.519 42C168.519 41.1716 167.794 40.5 166.899 40.5C166.004 40.5 165.278 41.1716 165.278 42C165.278 42.8284 166.004 43.5 166.899 43.5Z" fill="black"/>
<path id="Vector_106" d="M148.534 52C149.429 52 150.155 51.3284 150.155 50.5C150.155 49.6716 149.429 49 148.534 49C147.64 49 146.914 49.6716 146.914 50.5C146.914 51.3284 147.64 52 148.534 52Z" fill="black"/>
<path id="Vector_107" d="M157.717 52C158.612 52 159.337 51.3284 159.337 50.5C159.337 49.6716 158.612 49 157.717 49C156.822 49 156.097 49.6716 156.097 50.5C156.097 51.3284 156.822 52 157.717 52Z" fill="black"/>
<path id="Vector_108" d="M166.899 52C167.794 52 168.519 51.3284 168.519 50.5C168.519 49.6716 167.794 49 166.899 49C166.004 49 165.278 49.6716 165.278 50.5C165.278 51.3284 166.004 52 166.899 52Z" fill="black"/>
</g>
</g>
</g>
<g id="Group 211" opacity="0.5">
<g id="Group 208_2">
<g id="DotsNine_13">
<path id="Vector_109" d="M8.10182 9C8.99672 9 9.72219 8.32843 9.72219 7.5C9.72219 6.67157 8.99672 6 8.10182 6C7.20691 6 6.48145 6.67157 6.48145 7.5C6.48145 8.32843 7.20691 9 8.10182 9Z" fill="black"/>
<path id="Vector_110" d="M17.2844 9C18.1793 9 18.9048 8.32843 18.9048 7.5C18.9048 6.67157 18.1793 6 17.2844 6C16.3895 6 15.6641 6.67157 15.6641 7.5C15.6641 8.32843 16.3895 9 17.2844 9Z" fill="black"/>
<path id="Vector_111" d="M26.4661 9C27.361 9 28.0864 8.32843 28.0864 7.5C28.0864 6.67157 27.361 6 26.4661 6C25.5712 6 24.8457 6.67157 24.8457 7.5C24.8457 8.32843 25.5712 9 26.4661 9Z" fill="black"/>
<path id="Vector_112" d="M8.10182 17.5C8.99672 17.5 9.72219 16.8284 9.72219 16C9.72219 15.1716 8.99672 14.5 8.10182 14.5C7.20691 14.5 6.48145 15.1716 6.48145 16C6.48145 16.8284 7.20691 17.5 8.10182 17.5Z" fill="black"/>
<path id="Vector_113" d="M17.2844 17.5C18.1793 17.5 18.9048 16.8284 18.9048 16C18.9048 15.1716 18.1793 14.5 17.2844 14.5C16.3895 14.5 15.6641 15.1716 15.6641 16C15.6641 16.8284 16.3895 17.5 17.2844 17.5Z" fill="black"/>
<path id="Vector_114" d="M26.4661 17.5C27.361 17.5 28.0864 16.8284 28.0864 16C28.0864 15.1716 27.361 14.5 26.4661 14.5C25.5712 14.5 24.8457 15.1716 24.8457 16C24.8457 16.8284 25.5712 17.5 26.4661 17.5Z" fill="black"/>
<path id="Vector_115" d="M8.10182 26C8.99672 26 9.72219 25.3284 9.72219 24.5C9.72219 23.6716 8.99672 23 8.10182 23C7.20691 23 6.48145 23.6716 6.48145 24.5C6.48145 25.3284 7.20691 26 8.10182 26Z" fill="black"/>
<path id="Vector_116" d="M17.2844 26C18.1793 26 18.9048 25.3284 18.9048 24.5C18.9048 23.6716 18.1793 23 17.2844 23C16.3895 23 15.6641 23.6716 15.6641 24.5C15.6641 25.3284 16.3895 26 17.2844 26Z" fill="black"/>
<path id="Vector_117" d="M26.4661 26C27.361 26 28.0864 25.3284 28.0864 24.5C28.0864 23.6716 27.361 23 26.4661 23C25.5712 23 24.8457 23.6716 24.8457 24.5C24.8457 25.3284 25.5712 26 26.4661 26Z" fill="black"/>
</g>
<g id="DotsNine_14">
<path id="Vector_118" d="M36.1887 9C37.0836 9 37.8091 8.32843 37.8091 7.5C37.8091 6.67157 37.0836 6 36.1887 6C35.2938 6 34.5684 6.67157 34.5684 7.5C34.5684 8.32843 35.2938 9 36.1887 9Z" fill="black"/>
<path id="Vector_119" d="M45.3713 9C46.2663 9 46.9917 8.32843 46.9917 7.5C46.9917 6.67157 46.2663 6 45.3713 6C44.4764 6 43.751 6.67157 43.751 7.5C43.751 8.32843 44.4764 9 45.3713 9Z" fill="black"/>
<path id="Vector_120" d="M54.553 9C55.4479 9 56.1734 8.32843 56.1734 7.5C56.1734 6.67157 55.4479 6 54.553 6C53.6581 6 52.9326 6.67157 52.9326 7.5C52.9326 8.32843 53.6581 9 54.553 9Z" fill="black"/>
<path id="Vector_121" d="M36.1887 17.5C37.0836 17.5 37.8091 16.8284 37.8091 16C37.8091 15.1716 37.0836 14.5 36.1887 14.5C35.2938 14.5 34.5684 15.1716 34.5684 16C34.5684 16.8284 35.2938 17.5 36.1887 17.5Z" fill="black"/>
<path id="Vector_122" d="M45.3713 17.5C46.2663 17.5 46.9917 16.8284 46.9917 16C46.9917 15.1716 46.2663 14.5 45.3713 14.5C44.4764 14.5 43.751 15.1716 43.751 16C43.751 16.8284 44.4764 17.5 45.3713 17.5Z" fill="black"/>
<path id="Vector_123" d="M54.553 17.5C55.4479 17.5 56.1734 16.8284 56.1734 16C56.1734 15.1716 55.4479 14.5 54.553 14.5C53.6581 14.5 52.9326 15.1716 52.9326 16C52.9326 16.8284 53.6581 17.5 54.553 17.5Z" fill="black"/>
<path id="Vector_124" d="M36.1887 26C37.0836 26 37.8091 25.3284 37.8091 24.5C37.8091 23.6716 37.0836 23 36.1887 23C35.2938 23 34.5684 23.6716 34.5684 24.5C34.5684 25.3284 35.2938 26 36.1887 26Z" fill="black"/>
<path id="Vector_125" d="M45.3713 26C46.2663 26 46.9917 25.3284 46.9917 24.5C46.9917 23.6716 46.2663 23 45.3713 23C44.4764 23 43.751 23.6716 43.751 24.5C43.751 25.3284 44.4764 26 45.3713 26Z" fill="black"/>
<path id="Vector_126" d="M54.553 26C55.4479 26 56.1734 25.3284 56.1734 24.5C56.1734 23.6716 55.4479 23 54.553 23C53.6581 23 52.9326 23.6716 52.9326 24.5C52.9326 25.3284 53.6581 26 54.553 26Z" fill="black"/>
</g>
<g id="DotsNine_15">
<path id="Vector_127" d="M64.2747 9C65.1696 9 65.895 8.32843 65.895 7.5C65.895 6.67157 65.1696 6 64.2747 6C63.3798 6 62.6543 6.67157 62.6543 7.5C62.6543 8.32843 63.3798 9 64.2747 9Z" fill="black"/>
<path id="Vector_128" d="M73.4563 9C74.3512 9 75.0767 8.32843 75.0767 7.5C75.0767 6.67157 74.3512 6 73.4563 6C72.5614 6 71.8359 6.67157 71.8359 7.5C71.8359 8.32843 72.5614 9 73.4563 9Z" fill="black"/>
<path id="Vector_129" d="M82.6389 9C83.5338 9 84.2593 8.32843 84.2593 7.5C84.2593 6.67157 83.5338 6 82.6389 6C81.744 6 81.0186 6.67157 81.0186 7.5C81.0186 8.32843 81.744 9 82.6389 9Z" fill="black"/>
<path id="Vector_130" d="M64.2747 17.5C65.1696 17.5 65.895 16.8284 65.895 16C65.895 15.1716 65.1696 14.5 64.2747 14.5C63.3798 14.5 62.6543 15.1716 62.6543 16C62.6543 16.8284 63.3798 17.5 64.2747 17.5Z" fill="black"/>
<path id="Vector_131" d="M73.4563 17.5C74.3512 17.5 75.0767 16.8284 75.0767 16C75.0767 15.1716 74.3512 14.5 73.4563 14.5C72.5614 14.5 71.8359 15.1716 71.8359 16C71.8359 16.8284 72.5614 17.5 73.4563 17.5Z" fill="black"/>
<path id="Vector_132" d="M82.6389 17.5C83.5338 17.5 84.2593 16.8284 84.2593 16C84.2593 15.1716 83.5338 14.5 82.6389 14.5C81.744 14.5 81.0186 15.1716 81.0186 16C81.0186 16.8284 81.744 17.5 82.6389 17.5Z" fill="black"/>
<path id="Vector_133" d="M64.2747 26C65.1696 26 65.895 25.3284 65.895 24.5C65.895 23.6716 65.1696 23 64.2747 23C63.3798 23 62.6543 23.6716 62.6543 24.5C62.6543 25.3284 63.3798 26 64.2747 26Z" fill="black"/>
<path id="Vector_134" d="M73.4563 26C74.3512 26 75.0767 25.3284 75.0767 24.5C75.0767 23.6716 74.3512 23 73.4563 23C72.5614 23 71.8359 23.6716 71.8359 24.5C71.8359 25.3284 72.5614 26 73.4563 26Z" fill="black"/>
<path id="Vector_135" d="M82.6389 26C83.5338 26 84.2593 25.3284 84.2593 24.5C84.2593 23.6716 83.5338 23 82.6389 23C81.744 23 81.0186 23.6716 81.0186 24.5C81.0186 25.3284 81.744 26 82.6389 26Z" fill="black"/>
</g>
<g id="DotsNine_16">
<path id="Vector_136" d="M92.3616 9C93.2565 9 93.982 8.32843 93.982 7.5C93.982 6.67157 93.2565 6 92.3616 6C91.4667 6 90.7412 6.67157 90.7412 7.5C90.7412 8.32843 91.4667 9 92.3616 9Z" fill="black"/>
<path id="Vector_137" d="M101.544 9C102.439 9 103.165 8.32843 103.165 7.5C103.165 6.67157 102.439 6 101.544 6C100.649 6 99.9238 6.67157 99.9238 7.5C99.9238 8.32843 100.649 9 101.544 9Z" fill="black"/>
<path id="Vector_138" d="M110.726 9C111.621 9 112.346 8.32843 112.346 7.5C112.346 6.67157 111.621 6 110.726 6C109.831 6 109.105 6.67157 109.105 7.5C109.105 8.32843 109.831 9 110.726 9Z" fill="black"/>
<path id="Vector_139" d="M92.3616 17.5C93.2565 17.5 93.982 16.8284 93.982 16C93.982 15.1716 93.2565 14.5 92.3616 14.5C91.4667 14.5 90.7412 15.1716 90.7412 16C90.7412 16.8284 91.4667 17.5 92.3616 17.5Z" fill="black"/>
<path id="Vector_140" d="M101.544 17.5C102.439 17.5 103.165 16.8284 103.165 16C103.165 15.1716 102.439 14.5 101.544 14.5C100.649 14.5 99.9238 15.1716 99.9238 16C99.9238 16.8284 100.649 17.5 101.544 17.5Z" fill="black"/>
<path id="Vector_141" d="M110.726 17.5C111.621 17.5 112.346 16.8284 112.346 16C112.346 15.1716 111.621 14.5 110.726 14.5C109.831 14.5 109.105 15.1716 109.105 16C109.105 16.8284 109.831 17.5 110.726 17.5Z" fill="black"/>
<path id="Vector_142" d="M92.3616 26C93.2565 26 93.982 25.3284 93.982 24.5C93.982 23.6716 93.2565 23 92.3616 23C91.4667 23 90.7412 23.6716 90.7412 24.5C90.7412 25.3284 91.4667 26 92.3616 26Z" fill="black"/>
<path id="Vector_143" d="M101.544 26C102.439 26 103.165 25.3284 103.165 24.5C103.165 23.6716 102.439 23 101.544 23C100.649 23 99.9238 23.6716 99.9238 24.5C99.9238 25.3284 100.649 26 101.544 26Z" fill="black"/>
<path id="Vector_144" d="M110.726 26C111.621 26 112.346 25.3284 112.346 24.5C112.346 23.6716 111.621 23 110.726 23C109.831 23 109.105 23.6716 109.105 24.5C109.105 25.3284 109.831 26 110.726 26Z" fill="black"/>
</g>
<g id="DotsNine_17">
<path id="Vector_145" d="M120.448 9C121.342 9 122.068 8.32843 122.068 7.5C122.068 6.67157 121.342 6 120.448 6C119.553 6 118.827 6.67157 118.827 7.5C118.827 8.32843 119.553 9 120.448 9Z" fill="black"/>
<path id="Vector_146" d="M129.629 9C130.524 9 131.25 8.32843 131.25 7.5C131.25 6.67157 130.524 6 129.629 6C128.734 6 128.009 6.67157 128.009 7.5C128.009 8.32843 128.734 9 129.629 9Z" fill="black"/>
<path id="Vector_147" d="M138.812 9C139.707 9 140.432 8.32843 140.432 7.5C140.432 6.67157 139.707 6 138.812 6C137.917 6 137.191 6.67157 137.191 7.5C137.191 8.32843 137.917 9 138.812 9Z" fill="black"/>
<path id="Vector_148" d="M120.448 17.5C121.342 17.5 122.068 16.8284 122.068 16C122.068 15.1716 121.342 14.5 120.448 14.5C119.553 14.5 118.827 15.1716 118.827 16C118.827 16.8284 119.553 17.5 120.448 17.5Z" fill="black"/>
<path id="Vector_149" d="M129.629 17.5C130.524 17.5 131.25 16.8284 131.25 16C131.25 15.1716 130.524 14.5 129.629 14.5C128.734 14.5 128.009 15.1716 128.009 16C128.009 16.8284 128.734 17.5 129.629 17.5Z" fill="black"/>
<path id="Vector_150" d="M138.812 17.5C139.707 17.5 140.432 16.8284 140.432 16C140.432 15.1716 139.707 14.5 138.812 14.5C137.917 14.5 137.191 15.1716 137.191 16C137.191 16.8284 137.917 17.5 138.812 17.5Z" fill="black"/>
<path id="Vector_151" d="M120.448 26C121.342 26 122.068 25.3284 122.068 24.5C122.068 23.6716 121.342 23 120.448 23C119.553 23 118.827 23.6716 118.827 24.5C118.827 25.3284 119.553 26 120.448 26Z" fill="black"/>
<path id="Vector_152" d="M129.629 26C130.524 26 131.25 25.3284 131.25 24.5C131.25 23.6716 130.524 23 129.629 23C128.734 23 128.009 23.6716 128.009 24.5C128.009 25.3284 128.734 26 129.629 26Z" fill="black"/>
<path id="Vector_153" d="M138.812 26C139.707 26 140.432 25.3284 140.432 24.5C140.432 23.6716 139.707 23 138.812 23C137.917 23 137.191 23.6716 137.191 24.5C137.191 25.3284 137.917 26 138.812 26Z" fill="black"/>
</g>
<g id="DotsNine_18">
<path id="Vector_154" d="M148.534 9C149.429 9 150.155 8.32843 150.155 7.5C150.155 6.67157 149.429 6 148.534 6C147.64 6 146.914 6.67157 146.914 7.5C146.914 8.32843 147.64 9 148.534 9Z" fill="black"/>
<path id="Vector_155" d="M157.717 9C158.612 9 159.337 8.32843 159.337 7.5C159.337 6.67157 158.612 6 157.717 6C156.822 6 156.097 6.67157 156.097 7.5C156.097 8.32843 156.822 9 157.717 9Z" fill="black"/>
<path id="Vector_156" d="M166.899 9C167.794 9 168.519 8.32843 168.519 7.5C168.519 6.67157 167.794 6 166.899 6C166.004 6 165.278 6.67157 165.278 7.5C165.278 8.32843 166.004 9 166.899 9Z" fill="black"/>
<path id="Vector_157" d="M148.534 17.5C149.429 17.5 150.155 16.8284 150.155 16C150.155 15.1716 149.429 14.5 148.534 14.5C147.64 14.5 146.914 15.1716 146.914 16C146.914 16.8284 147.64 17.5 148.534 17.5Z" fill="black"/>
<path id="Vector_158" d="M157.717 17.5C158.612 17.5 159.337 16.8284 159.337 16C159.337 15.1716 158.612 14.5 157.717 14.5C156.822 14.5 156.097 15.1716 156.097 16C156.097 16.8284 156.822 17.5 157.717 17.5Z" fill="black"/>
<path id="Vector_159" d="M166.899 17.5C167.794 17.5 168.519 16.8284 168.519 16C168.519 15.1716 167.794 14.5 166.899 14.5C166.004 14.5 165.278 15.1716 165.278 16C165.278 16.8284 166.004 17.5 166.899 17.5Z" fill="black"/>
<path id="Vector_160" d="M148.534 26C149.429 26 150.155 25.3284 150.155 24.5C150.155 23.6716 149.429 23 148.534 23C147.64 23 146.914 23.6716 146.914 24.5C146.914 25.3284 147.64 26 148.534 26Z" fill="black"/>
<path id="Vector_161" d="M157.717 26C158.612 26 159.337 25.3284 159.337 24.5C159.337 23.6716 158.612 23 157.717 23C156.822 23 156.097 23.6716 156.097 24.5C156.097 25.3284 156.822 26 157.717 26Z" fill="black"/>
<path id="Vector_162" d="M166.899 26C167.794 26 168.519 25.3284 168.519 24.5C168.519 23.6716 167.794 23 166.899 23C166.004 23 165.278 23.6716 165.278 24.5C165.278 25.3284 166.004 26 166.899 26Z" fill="black"/>
</g>
</g>
</g>
</g>
</svg>
