<svg width="22" height="27" viewBox="0 0 22 27" fill="none" xmlns="http://www.w3.org/2000/svg">
<path id="Vector" d="M20.8862 20.9452C20.5032 21.8842 20.0498 22.7485 19.5246 23.5432C18.8085 24.6265 18.2223 25.3764 17.7705 25.7928C17.0701 26.4763 16.3197 26.8263 15.5161 26.8463C14.9393 26.8463 14.2436 26.6721 13.4338 26.3187C12.6213 25.967 11.8747 25.7928 11.1919 25.7928C10.4759 25.7928 9.70803 25.967 8.88665 26.3187C8.06402 26.6721 7.40132 26.8562 6.89464 26.8745C6.12407 26.9093 5.356 26.5493 4.58934 25.7928C4.10002 25.3399 3.48797 24.5635 2.75476 23.4635C1.96809 22.289 1.32133 20.9269 0.814656 19.3741C0.272021 17.6968 0 16.0726 0 14.5002C0 12.6991 0.36676 11.1456 1.10137 9.84373C1.67871 8.79806 2.44678 7.9732 3.40808 7.36766C4.36938 6.76212 5.40806 6.45355 6.52663 6.43381C7.13868 6.43381 7.9413 6.63471 8.93871 7.02956C9.93331 7.42573 10.5719 7.62663 10.8519 7.62663C11.0613 7.62663 11.7707 7.39172 12.9734 6.92338C14.1107 6.48905 15.0706 6.30921 15.857 6.38005C17.9878 6.56255 19.5886 7.45393 20.6533 9.05985C18.7476 10.2852 17.8049 12.0014 17.8236 14.2031C17.8408 15.918 18.4271 17.3451 19.5793 18.4782C20.1014 19.0041 20.6845 19.4106 21.3333 19.6992C21.1926 20.1322 21.0441 20.547 20.8862 20.9452ZM15.9992 0.537688C15.9992 1.88183 15.5365 3.13686 14.6141 4.2985C13.501 5.67945 12.1547 6.47744 10.6947 6.35152C10.676 6.19026 10.6653 6.02055 10.6653 5.8422C10.6653 4.55183 11.1946 3.17087 12.1346 2.04175C12.604 1.47005 13.2008 0.994696 13.9247 0.615495C14.6469 0.241952 15.3301 0.0353755 15.9726 0C15.9914 0.179691 15.9992 0.359394 15.9992 0.537671V0.537688Z" fill="white"/>
</svg>
