<svg width="15" height="15" viewBox="0 0 15 15" fill="none" xmlns="http://www.w3.org/2000/svg">
<g id="Group">
<path id="Vector" d="M13.3933 0H1.60667C0.72 0 0 0.72 0 1.60667V13.3933C0 14.28 0.72 15 1.60667 15H13.3933C14.28 15 15 14.28 15 13.3933V1.60667C15 0.72 14.28 0 13.3933 0ZM11.7567 5.31667C11.7633 5.41 11.7633 5.50667 11.7633 5.6C11.7633 8.50333 9.55333 11.8467 5.51667 11.8467C4.27 11.8467 3.11667 11.4867 2.14667 10.8633C2.32333 10.8833 2.49333 10.89 2.67667 10.89C3.70333 10.89 4.65 10.5433 5.40333 9.95333C4.44 9.93333 3.63 9.3 3.35 8.43C3.68667 8.48 3.99333 8.48 4.34 8.39C3.33667 8.18667 2.58333 7.30333 2.58333 6.23333V6.20667C2.87333 6.37 3.21667 6.47 3.57333 6.48333C2.96 6.07667 2.59333 5.39 2.59667 4.65667C2.59667 4.24667 2.70333 3.87333 2.89333 3.55C3.97333 4.88333 5.6 5.75333 7.42 5.84667C7.11 4.35667 8.22333 3.14667 9.56333 3.14667C10.1967 3.14667 10.7667 3.41 11.1667 3.84C11.6633 3.74667 12.1367 3.56333 12.56 3.31C12.3967 3.82 12.05 4.24667 11.5967 4.52C12.04 4.47333 12.4667 4.35 12.8633 4.18C12.56 4.61667 12.1833 5.00667 11.7567 5.31667Z" fill="white"/>
</g>
</svg>
