<svg width="15" height="15" viewBox="0 0 15 15" fill="none" xmlns="http://www.w3.org/2000/svg">
<g id="Group">
<g id="Group_2">
<path id="Vector" fill-rule="evenodd" clip-rule="evenodd" d="M14.1722 15.0001C14.6293 15.0001 15 14.6294 15 14.1723V0.82786C15 0.370542 14.6293 0 14.1722 0H0.82786C0.370542 0 0 0.370598 0 0.82786V14.1722C0 14.6294 0.370542 15.0001 0.82786 15.0001H14.1722V15.0001ZM10.3498 15.0001V9.19127H12.2995L12.5914 6.92744H10.3497V5.48208C10.3497 4.82665 10.5317 4.38001 11.4716 4.38001L12.6704 4.37945V2.35471C12.463 2.32717 11.7514 2.26551 10.9236 2.26551C9.1952 2.26551 8.01192 3.32049 8.01192 5.25795V6.92744H6.05715V9.19127H8.01192V15.0001H10.3498V15.0001Z" fill="white"/>
</g>
</g>
</svg>
